<svg width="25" height="24" viewBox="0 0 25 24" fill="none" xmlns="http://www.w3.org/2000/svg">
<path d="M2.66797 16C2.66797 13.6611 2.66797 12.4917 3.20443 11.6379C3.48418 11.1927 3.86064 10.8162 4.30586 10.5365C5.15964 10 6.32908 10 8.66797 10H16.668C19.0069 10 20.1763 10 21.0301 10.5365C21.4753 10.8162 21.8518 11.1927 22.1315 11.6379C22.668 12.4917 22.668 13.6611 22.668 16C22.668 18.3389 22.668 19.5083 22.1315 20.3621C21.8518 20.8073 21.4753 21.1838 21.0301 21.4635C20.1763 22 19.0069 22 16.668 22H8.66797C6.32908 22 5.15964 22 4.30586 21.4635C3.86064 21.1838 3.48418 20.8073 3.20443 20.3621C2.66797 19.5083 2.66797 18.3389 2.66797 16Z" stroke="#475467" stroke-width="1.25" stroke-linecap="round" stroke-linejoin="round"/>
<path d="M20.668 10C20.668 8.59987 20.668 7.8998 20.3955 7.36502C20.1558 6.89462 19.7733 6.51217 19.3029 6.27248C18.7682 6 18.0681 6 16.668 6H8.66797C7.26784 6 6.56777 6 6.03299 6.27248C5.56259 6.51217 5.18014 6.89462 4.94045 7.36502C4.66797 7.8998 4.66797 8.59987 4.66797 10" stroke="#475467" stroke-width="1.25" stroke-linecap="round" stroke-linejoin="round"/>
<path d="M18.668 6C18.668 4.11438 18.668 3.17157 18.0822 2.58579C17.4964 2 16.5536 2 14.668 2H10.668C8.78235 2 7.83954 2 7.25376 2.58579C6.66797 3.17157 6.66797 4.11438 6.66797 6" stroke="#475467" stroke-width="1.25" stroke-linecap="round" stroke-linejoin="round"/>
<path d="M15.668 14C15.668 15.1046 14.7725 16 13.668 16H11.668C10.5634 16 9.66797 15.1046 9.66797 14" stroke="#475467" stroke-width="1.25" stroke-linecap="round"/>
</svg>
