<svg width="24" height="24" viewBox="0 0 24 24" fill="none" xmlns="http://www.w3.org/2000/svg">
<path d="M19.665 1.32891C19.8974 1.21287 20.1735 1.22553 20.3945 1.36211C20.6154 1.49881 20.75 1.74003 20.75 1.99981V11.5272C20.75 12.4357 20.7498 13.1567 20.71 13.74C20.6693 14.3358 20.585 14.8442 20.3887 15.3182C20.1219 15.962 19.7189 16.5321 19.2155 16.9949C19.1056 17.0959 19.0506 17.1465 19.0253 17.2041C19 17.2617 19 17.33 19 17.4665V20.3998C19 20.6826 19 20.8241 19.0879 20.9119C19.1757 20.9998 19.3172 20.9998 19.6 20.9998H19.7383C20.2905 20.9998 20.7382 21.4476 20.7383 21.9998C20.7382 22.552 20.2905 22.9998 19.7383 22.9998H6.74609C4.81316 22.9998 3.2462 21.4327 3.24609 19.4998C3.2461 19.4481 3.24741 19.3966 3.25 19.3455V10.6395C3.24999 9.18478 3.24974 8.03147 3.34863 7.11407C3.45005 6.17368 3.66292 5.39229 4.14844 4.71953C4.44586 4.30747 4.8077 3.94572 5.21973 3.64825C5.55164 3.40868 5.91017 3.2359 6.30118 3.11004C6.60261 3.013 6.75333 2.96449 6.87667 3.05435C7 3.14421 7 3.31535 7 3.65763V7.99981C7 8.55209 7.44772 8.99981 8 8.99981C8.55228 8.99981 9 8.55209 9 7.99981V3.3519C9 3.0752 9 2.93685 9.08653 2.84922C9.17306 2.76158 9.31015 2.75985 9.58434 2.75638C10.0602 2.75036 10.5774 2.7498 11.1396 2.74981H11.1846C11.7565 2.74982 12.4263 2.76748 13.0723 2.78496C13.5219 2.79713 13.96 2.80904 14.3457 2.81426C15.2378 2.82633 15.628 2.83103 16.3916 2.6961C17.166 2.55925 17.246 2.52853 17.3398 2.492L17.3613 2.48321C17.8247 2.30703 18.2417 2.08225 18.7314 1.81817C19.011 1.66743 19.3152 1.50385 19.665 1.32891ZM6.24609 18.4998C5.69386 18.4998 5.24617 18.9476 5.24609 19.4998C5.2462 20.3281 5.91773 20.9998 6.74609 20.9998H16.4C16.6828 20.9998 16.8243 20.9998 16.9121 20.9119C17 20.8241 17 20.6826 17 20.3998V19.0998C17 18.817 17 18.6755 16.9121 18.5877C16.8243 18.4998 16.6828 18.4998 16.4 18.4998H6.24609Z" fill="#003B81"/>
</svg>
