<svg width="25" height="24" viewBox="0 0 25 24" fill="none" xmlns="http://www.w3.org/2000/svg">
<path d="M17.1679 15.9652C14.3976 17.3958 12.8245 20.6171 12.334 21.5V8C12.7727 7.21023 14.0778 4.86111 16.3313 3.4157C17.0882 2.93018 17.4667 2.68742 17.9003 2.92445C18.334 3.16148 18.334 3.6775 18.334 4.70955V14.2428C18.334 14.8071 18.334 15.0893 18.2124 15.289C18.0908 15.4886 17.7831 15.6475 17.1679 15.9652Z" stroke="#535862" stroke-width="1.25" stroke-linecap="round" stroke-linejoin="round"/>
<path d="M12.334 7.80556C11.6471 7.08403 9.65574 5.3704 6.31454 4.76958C4.62188 4.4652 3.77555 4.31301 3.05477 4.89633C2.33398 5.47965 2.33398 6.42688 2.33398 8.32133V15.1297C2.33398 16.8619 2.33398 17.728 2.79658 18.2687C3.25918 18.8095 4.27763 18.9926 6.31454 19.3589C8.13031 19.6854 9.54743 20.2057 10.5732 20.7285C11.5824 21.2428 12.087 21.5 12.334 21.5C12.581 21.5 13.0856 21.2428 14.0948 20.7285C15.1205 20.2057 16.5377 19.6854 18.3534 19.3589C20.3903 18.9926 21.4088 18.8095 21.8714 18.2687C22.334 17.728 22.334 16.8619 22.334 15.1297V8.32133C22.334 6.42688 22.334 5.47965 21.6132 4.89633C20.8924 4.31301 19.334 4.76958 18.334 5.5" stroke="#535862" stroke-width="1.25" stroke-linecap="round" stroke-linejoin="round"/>
</svg>
