<svg width="24" height="24" viewBox="0 0 24 24" fill="none" xmlns="http://www.w3.org/2000/svg">
<path d="M14.0566 1.25C15.8943 1.24999 17.3501 1.25016 18.4893 1.40332C19.6616 1.56096 20.6101 1.89329 21.3584 2.6416C22.1067 3.38991 22.439 4.33844 22.5967 5.51074C22.7498 6.6499 22.75 8.10573 22.75 9.94336V10.0566C22.75 11.8943 22.7498 13.3501 22.5967 14.4893C22.439 15.6616 22.1067 16.6101 21.3584 17.3584C20.6361 18.0807 19.727 18.416 18.6094 18.5801L18.3242 18.5869C18.2058 18.5898 18.1459 18.5915 18.0967 18.5625C18.0475 18.5335 18.0208 18.4824 17.9678 18.3809C17.6524 17.7768 17.4049 17.13 17.2148 16.5059C16.9555 15.761 16.7968 14.8582 16.75 14.5C16.75 11.8766 14.6234 9.75 12 9.75C9.37665 9.75 7.25 11.8766 7.25 14.5C7.25 16.2019 7.58717 17.8216 7.75586 18.4189C7.76449 18.4507 7.76873 18.4671 7.77051 18.4785C7.7874 18.5909 7.71129 18.6925 7.59863 18.707C7.58713 18.7085 7.57087 18.7086 7.53906 18.709L6.98828 18.7148H6.96875C5.08736 18.6367 3.67043 18.3872 2.6416 17.3584C1.89329 16.6101 1.56096 15.6616 1.40332 14.4893C1.25016 13.3501 1.24999 11.8943 1.25 10.0566V9.94336C1.24999 8.10571 1.25016 6.64991 1.40332 5.51074C1.56096 4.33844 1.89329 3.38991 2.6416 2.6416C3.38991 1.89329 4.33844 1.56096 5.51074 1.40332C6.64991 1.25016 8.10571 1.24999 9.94336 1.25H14.0566ZM7 5.25C6.58579 5.25 6.25 5.58579 6.25 6C6.25 6.41421 6.58579 6.75 7 6.75H17C17.4142 6.75 17.75 6.41421 17.75 6C17.75 5.58579 17.4142 5.25 17 5.25H7Z" fill="#003B81"/>
<path d="M15.7646 17.0791C15.823 17.0895 15.8522 17.177 15.9111 17.3516C16.2695 18.4126 16.8027 19.5679 17.582 20.5264C17.8097 20.8065 17.8057 21.209 17.5723 21.4844C17.3386 21.7598 16.9415 21.8296 16.6279 21.6504L14 20.1484C13.914 20.0993 13.8703 20.0754 13.8291 20.0879C13.7882 20.1006 13.7658 20.1451 13.7217 20.2334L12.6709 22.335C12.5523 22.5721 12.3172 22.7295 12.0527 22.748C11.7881 22.7665 11.5333 22.6432 11.3828 22.4248C11.3499 22.377 11.3147 22.3268 11.2783 22.2744C10.7698 21.5413 9.94618 20.354 9.37793 18.6094C9.30212 18.3766 9.26446 18.2601 9.31836 18.2168C9.3724 18.1736 9.48336 18.2394 9.70508 18.3711C10.377 18.7703 11.1618 18.999 12 18.999C13.4303 18.999 14.705 18.3323 15.5293 17.292C15.6469 17.1436 15.7061 17.0689 15.7646 17.0791ZM12 11.25C13.7949 11.25 15.25 12.7051 15.25 14.5C15.25 16.2949 13.7949 17.75 12 17.75C10.2051 17.75 8.75 16.2949 8.75 14.5C8.75 12.7051 10.2051 11.25 12 11.25Z" fill="#003B81"/>
</svg>
