<svg width="24" height="24" viewBox="0 0 24 24" fill="none" xmlns="http://www.w3.org/2000/svg">
<path d="M12.625 14.9313C12.625 14.5861 12.3452 14.3063 12 14.3063C11.6548 14.3063 11.375 14.5861 11.375 14.9313H12.625ZM8.25354 20.867L8.05722 21.4604H8.05722L8.25354 20.867ZM5.98056 20.2895L5.86684 20.9041L5.98056 20.2895ZM2.72078 5.40782L2.32084 4.92754V4.92754L2.72078 5.40782ZM15.7465 20.867L15.5502 20.2737V20.2737L15.7465 20.867ZM18.0194 20.2895L18.1332 20.9041L18.0194 20.2895ZM21.2792 5.40782L21.6792 4.92754V4.92754L21.2792 5.40782ZM11.375 21.443C11.375 21.7882 11.6548 22.068 12 22.068C12.3452 22.068 12.625 21.7882 12.625 21.443H11.375ZM19.4306 4.41252C19.0875 4.45086 18.8405 4.76003 18.8789 5.10307C18.9172 5.44611 19.2264 5.69313 19.5694 5.65479L19.4306 4.41252ZM4.43058 5.65479C4.77363 5.69313 5.0828 5.44611 5.12113 5.10307C5.15947 4.76003 4.91246 4.45086 4.56942 4.41252L4.43058 5.65479ZM8.25354 20.867L8.44985 20.2737C7.75041 20.0423 6.96538 19.8362 6.09427 19.675L5.98056 20.2895L5.86684 20.9041C6.6826 21.055 7.4124 21.2471 8.05722 21.4604L8.25354 20.867ZM2 8.93208H1.375V15.9378H2H2.625V8.93208H2ZM5.98056 20.2895L6.09427 19.675C5.06264 19.4841 4.33505 19.3487 3.80464 19.1955C3.26883 19.0408 3.05082 18.8977 2.9432 18.7682L2.4626 19.1678L1.982 19.5673C2.33697 19.9943 2.85949 20.2236 3.45779 20.3964C4.06147 20.5708 4.86157 20.7181 5.86684 20.9041L5.98056 20.2895ZM2 15.9378H1.375C1.375 16.8142 1.37407 17.524 1.43673 18.0822C1.50032 18.6488 1.63737 19.1528 1.982 19.5673L2.4626 19.1678L2.9432 18.7682C2.82523 18.6263 2.73098 18.4066 2.67892 17.9428C2.62593 17.4707 2.625 16.8438 2.625 15.9378H2ZM2 8.93208H2.625C2.625 7.93643 2.62687 7.26446 2.70723 6.76289C2.78268 6.29197 2.91467 6.05969 3.12073 5.8881L2.72078 5.40782L2.32084 4.92754C1.80611 5.35617 1.57772 5.91134 1.47297 6.56515C1.37313 7.18832 1.375 7.97838 1.375 8.93208H2ZM15.7465 20.867L15.9428 21.4604C16.5876 21.2471 17.3174 21.055 18.1332 20.9041L18.0194 20.2895L17.9057 19.675C17.0346 19.8362 16.2496 20.0423 15.5502 20.2737L15.7465 20.867ZM22 8.93208H21.375V15.9378H22H22.625V8.93208H22ZM18.0194 20.2895L18.1332 20.9041C19.1384 20.7181 19.9385 20.5708 20.5422 20.3964C21.1405 20.2236 21.663 19.9943 22.018 19.5673L21.5374 19.1678L21.0568 18.7682C20.9492 18.8977 20.7312 19.0408 20.1954 19.1955C19.6649 19.3487 18.9374 19.4841 17.9057 19.675L18.0194 20.2895ZM22 15.9378H21.375C21.375 16.8438 21.3741 17.4707 21.3211 17.9428C21.269 18.4066 21.1748 18.6263 21.0568 18.7682L21.5374 19.1678L22.018 19.5673C22.3626 19.1528 22.4997 18.6488 22.5633 18.0822C22.6259 17.524 22.625 16.8142 22.625 15.9378H22ZM22 8.93208H22.625C22.625 7.97838 22.6269 7.18832 22.527 6.56515C22.4223 5.91134 22.1939 5.35617 21.6792 4.92754L21.2792 5.40782L20.8793 5.8881C21.0853 6.05969 21.2173 6.29197 21.2928 6.76289C21.3731 7.26446 21.375 7.93643 21.375 8.93208H22ZM8.25354 20.867L8.05722 21.4604C9.19588 21.8371 10.0592 22.1228 10.6776 22.3139C10.9865 22.4094 11.2433 22.4841 11.4476 22.5354C11.6333 22.582 11.8334 22.625 12 22.625V22V21.375C12.0056 21.375 11.9422 21.3708 11.752 21.323C11.5804 21.2799 11.3487 21.213 11.0467 21.1196C10.4431 20.9331 9.59413 20.6523 8.44985 20.2737L8.25354 20.867ZM15.7465 20.867L15.5502 20.2737C14.4059 20.6523 13.5569 20.9331 12.9533 21.1196C12.6513 21.213 12.4196 21.2799 12.248 21.323C12.0578 21.3708 11.9944 21.375 12 21.375V22V22.625C12.1666 22.625 12.3667 22.582 12.5524 22.5354C12.7567 22.4841 13.0135 22.4094 13.3224 22.3139C13.9408 22.1228 14.8041 21.8371 15.9428 21.4604L15.7465 20.867ZM12 14.9313H11.375V21.443H12H12.625V14.9313H12ZM19.5 5.03365L19.5694 5.65479C20.2844 5.57488 20.6004 5.6559 20.8793 5.8881L21.2792 5.40782L21.6792 4.92754C21.0143 4.37387 20.279 4.3177 19.4306 4.41252L19.5 5.03365ZM4.5 5.03365L4.56942 4.41252C3.721 4.3177 2.98572 4.37387 2.32084 4.92754L2.72078 5.40782L3.12073 5.8881C3.39957 5.6559 3.71561 5.57488 4.43058 5.65479L4.5 5.03365Z" fill="#535862"/>
<path d="M12 12C14.7614 12 17 9.76142 17 7C17 4.23858 14.7614 2 12 2M12 12C9.23858 12 7 9.76142 7 7C7 4.23858 9.23858 2 12 2M12 12C13.1046 12 14 9.76142 14 7C14 4.23858 13.1046 2 12 2M12 12C10.8954 12 10 9.76142 10 7C10 4.23858 10.8954 2 12 2" stroke="#535862" stroke-width="1.25" stroke-linecap="round" stroke-linejoin="round"/>
</svg>
