<svg width="25" height="24" viewBox="0 0 25 24" fill="none" xmlns="http://www.w3.org/2000/svg">
<path d="M13.3163 2.76376C12.965 2.4905 12.7893 2.35388 12.5953 2.30136C12.4242 2.25502 12.2438 2.25502 12.0726 2.30136C11.8787 2.35388 11.703 2.4905 11.3517 2.76375L4.56937 8.03888C4.11601 8.3915 3.88932 8.56781 3.72601 8.78861C3.58135 8.9842 3.47359 9.20454 3.40801 9.43881C3.33398 9.70327 3.33398 9.99045 3.33398 10.5648V17.7997C3.33398 18.9198 3.33398 19.4799 3.55197 19.9077C3.74372 20.284 4.04968 20.59 4.426 20.7818C4.85383 20.9997 5.41388 20.9997 6.53398 20.9997H8.53398C8.81401 20.9997 8.95402 20.9997 9.06098 20.9452C9.15506 20.8973 9.23155 20.8208 9.27949 20.7267C9.33398 20.6198 9.33398 20.4798 9.33398 20.1997V13.5997C9.33398 13.0397 9.33398 12.7597 9.44298 12.5457C9.53885 12.3576 9.69183 12.2046 9.87999 12.1087C10.0939 11.9997 10.3739 11.9997 10.934 11.9997H13.734C14.294 11.9997 14.5741 11.9997 14.788 12.1087C14.9761 12.2046 15.1291 12.3576 15.225 12.5457C15.334 12.7597 15.334 13.0397 15.334 13.5997V20.1997C15.334 20.4798 15.334 20.6198 15.3885 20.7267C15.4364 20.8208 15.5129 20.8973 15.607 20.9452C15.7139 20.9997 15.854 20.9997 16.134 20.9997H18.134C19.2541 20.9997 19.8141 20.9997 20.242 20.7818C20.6183 20.59 20.9243 20.284 21.116 19.9077C21.334 19.4799 21.334 18.9198 21.334 17.7997V10.5648C21.334 9.99045 21.334 9.70327 21.26 9.43881C21.1944 9.20454 21.0866 8.9842 20.942 8.78861C20.7786 8.56781 20.552 8.3915 20.0986 8.03888L13.3163 2.76376Z" stroke="#003B81" stroke-width="1.25" stroke-linecap="round" stroke-linejoin="round"/>
</svg>
