<svg width="24" height="25" viewBox="0 0 24 25" fill="none" xmlns="http://www.w3.org/2000/svg">
<path d="M2 7.66602L10.1649 13.3815C10.8261 13.8443 11.1567 14.0757 11.5163 14.1653C11.8339 14.2445 12.1661 14.2445 12.4837 14.1653C12.8433 14.0757 13.1739 13.8443 13.8351 13.3815L22 7.66602M6.8 20.666H17.2C18.8802 20.666 19.7202 20.666 20.362 20.339C20.9265 20.0514 21.3854 19.5925 21.673 19.028C22 18.3863 22 17.5462 22 15.866V9.46602C22 7.78586 22 6.94578 21.673 6.30404C21.3854 5.73956 20.9265 5.28062 20.362 4.993C19.7202 4.66602 18.8802 4.66602 17.2 4.66602H6.8C5.11984 4.66602 4.27976 4.66602 3.63803 4.993C3.07354 5.28062 2.6146 5.73956 2.32698 6.30404C2 6.94578 2 7.78586 2 9.46602V15.866C2 17.5462 2 18.3863 2.32698 19.028C2.6146 19.5925 3.07354 20.0514 3.63803 20.339C4.27976 20.666 5.11984 20.666 6.8 20.666Z" stroke="#003B81" stroke-width="1.66667" stroke-linecap="round" stroke-linejoin="round"/>
</svg>
