<svg width="293" height="200" viewBox="0 0 293 200" fill="none" xmlns="http://www.w3.org/2000/svg">
<path d="M18.4068 199.181C18.4068 199.181 -13.0677 125.139 8.20093 94.6105C29.4695 64.0818 77.0439 84.0429 98.8721 52.927C120.7 21.8111 158.76 -6.36934 202.976 1.26294C247.193 8.89511 309.879 49.9916 287.491 140.991C287.491 140.991 270.485 197.939 244.007 199.113C217.528 200.287 18.4068 199.181 18.4068 199.181Z" fill="#FEEFDC"/>
<path d="M171.319 42.7451H151.297C149.203 42.7451 147.506 44.4425 147.506 46.5363V53.0172C147.506 55.111 149.203 56.8083 151.297 56.8083H171.319C173.413 56.8083 175.11 55.111 175.11 53.0171V46.5363C175.11 44.4425 173.413 42.7451 171.319 42.7451Z" fill="#F99247"/>
<path d="M165.155 42.7451H145.133C143.039 42.7451 141.342 44.4425 141.342 46.5363V53.0172C141.342 55.111 143.039 56.8083 145.133 56.8083H165.155C167.249 56.8083 168.946 55.111 168.946 53.0171V46.5363C168.946 44.4425 167.249 42.7451 165.155 42.7451Z" fill="#FEC786"/>
<path d="M155.303 48.3435C156.332 48.3435 157.166 47.5094 157.166 46.4804C157.166 45.4514 156.332 44.6172 155.303 44.6172C154.274 44.6172 153.439 45.4514 153.439 46.4804C153.439 47.5094 154.274 48.3435 155.303 48.3435Z" fill="#E2F2F1"/>
<path d="M115.799 193.929L119.803 191.886C119.803 191.886 124.051 191.443 124.108 191.886C124.165 192.329 121.767 195.641 121.424 195.641C121.082 195.641 116.171 195.641 116.171 195.641L115.799 193.929Z" fill="#F99247"/>
<path d="M204.226 199.181L208.109 197.201C208.109 197.201 206.586 195.222 206.167 195.222C205.749 195.222 202.475 197.049 202.475 197.049L204.226 199.181Z" fill="#F99247"/>
<path d="M202.754 191.263H121.874C118.914 191.263 116.516 193.662 116.516 196.621V197.202H208.112V196.621C208.112 193.662 205.713 191.263 202.754 191.263Z" fill="#F99247"/>
<path d="M183.9 197.201H150.774L138.896 127.801H172.022L183.9 197.201Z" fill="#F99247"/>
<path d="M251.851 49.7764H67.5189C63.0018 49.7764 59.3398 53.4382 59.3398 57.9553V153.025V168.26C59.3398 171.429 61.4345 173.997 64.0183 173.997H255.351C257.935 173.997 260.03 171.429 260.03 168.26V153.025V57.9553C260.03 53.4383 256.368 49.7764 251.851 49.7764Z" fill="#F99247"/>
<path d="M180.472 197.201H147.347L135.469 127.801H168.595L180.472 197.201Z" fill="#F7AB48"/>
<path d="M255.334 153.025V57.9554C255.334 53.4383 251.672 49.7764 247.155 49.7764H62.8236C58.3064 49.7764 54.6445 53.4383 54.6445 57.9553V153.025H255.334Z" fill="#F7AB48"/>
<path d="M54.6445 153.025V168.26C54.6445 171.429 56.7392 173.998 59.3229 173.998H250.656C253.24 173.998 255.334 171.429 255.334 168.26V153.025H54.6445Z" fill="#FEC786"/>
<path d="M250.634 148.897V58.2096C250.634 55.8324 248.637 53.9053 246.175 53.9053H63.7993C61.3363 53.9053 59.3398 55.8323 59.3398 58.2096V148.897H250.634Z" fill="#E2F2F1"/>
<path d="M251.053 97.7634H172.992V54.1354L247.068 53.9912L250.635 56.0198L251.053 97.7634Z" fill="#FEC786"/>
<path d="M250.653 174.19H59.3204C56.6344 174.19 54.4492 171.53 54.4492 168.26V57.9556C54.4492 53.3394 58.2048 49.584 62.8208 49.584V49.9694C58.4172 49.9694 54.8347 53.5519 54.8347 57.9556V168.26C54.8347 171.317 56.8469 173.805 59.3203 173.805H250.653L250.653 174.19Z" fill="#21111D"/>
<path d="M246.791 157.03L242.221 163.388L242.534 163.613L247.104 157.255L246.791 157.03Z" fill="#21111D"/>
<path d="M246.796 160.219L242.229 166.405L242.539 166.634L247.106 160.448L246.796 160.219Z" fill="#21111D"/>
<path d="M250.827 149.089H59.3398V148.704H250.441V58.2089C250.441 55.9419 248.527 54.0973 246.175 54.0973V53.7119C248.74 53.7119 250.827 55.7293 250.827 58.2089L250.827 149.089Z" fill="#21111D"/>
<path d="M204.227 199.181C204.227 195.901 201.568 193.242 198.288 193.242H118.57C115.29 193.242 112.631 195.901 112.631 199.181H204.227Z" fill="#F7AB48"/>
<path d="M149.069 175.393L146.797 179.37L147.132 179.561L149.403 175.584L149.069 175.393Z" fill="#21111D"/>
<path d="M149.24 178.151L147.184 181.653L147.516 181.849L149.573 178.347L149.24 178.151Z" fill="#21111D"/>
<path d="M172.248 53.4502H94.1875V97.7635H172.248V53.4502Z" fill="#7FC6A6"/>
<path d="M172.734 98.5059H94.9863V143.98H172.734V98.5059Z" fill="#FFCABA"/>
<path d="M93.7849 53.9053H63.7993C61.3363 53.9053 59.3398 55.8323 59.3398 58.2096V148.897H93.7849V53.9053Z" fill="#61A3C5"/>
<path d="M251.212 149.475H58.7617V58.2096C58.7617 55.5175 61.0215 53.3271 63.7992 53.3271H246.175C248.952 53.3271 251.212 55.5175 251.212 58.2096V149.475ZM59.918 148.319H250.056V58.2096C250.056 56.155 248.315 54.4835 246.175 54.4835H63.7992C61.6591 54.4835 59.9181 56.155 59.9181 58.2096L59.918 148.319Z" fill="#21111D"/>
<path d="M135.708 61.7083C135.901 60.3974 137.14 59.323 138.465 59.3174C138.604 59.3168 138.746 59.3271 138.876 59.378C139.023 59.4359 139.146 59.5425 139.288 59.6122C139.636 59.7824 140.101 59.7366 140.355 60.0283C140.631 60.3433 140.479 60.8312 140.56 61.2414C140.622 61.554 140.822 61.8199 140.937 62.1171C141.162 62.7001 141.039 63.3711 140.753 63.9266C140.468 64.4821 140.033 64.9445 139.604 65.3988C139.253 65.7709 138.886 66.154 138.411 66.3426C137.479 66.712 136.789 66.0214 136.493 65.2076C136.098 64.1192 135.534 62.891 135.708 61.7083Z" fill="#FEC786"/>
<path d="M130.26 67.575C130.26 67.575 127.594 75.2264 127.272 75.8701C126.95 76.5137 125.32 79.4816 125.905 82.9753C126.491 86.4691 137.047 87.7103 137.047 87.7103L136.855 63.7342C136.855 63.7342 132.14 63.1618 130.26 67.575Z" fill="#FEC786"/>
<path d="M143.344 67.575C143.344 67.575 146.01 75.2264 146.332 75.8701C146.654 76.5137 148.284 79.4816 147.699 82.9753C147.113 86.4691 136.557 87.7103 136.557 87.7103L136.749 63.7342C136.749 63.7342 141.464 63.1618 143.344 67.575Z" fill="#FEC786"/>
<path d="M132.926 70.0581L138.998 64.9336L139.664 69.8129C139.664 69.8129 135.653 70.9162 135.5 70.9162C135.347 70.9162 132.926 70.0581 132.926 70.0581Z" fill="#FE9F73"/>
<path d="M162.778 97.0201C160.466 91.6272 158.052 86.4506 157.007 85.6846C154.723 84.0096 139.647 83.8573 139.647 83.8573C139.647 83.8573 128.683 83.2862 122.897 84.2951C122.897 84.2951 116.501 84.5426 113.303 91.1667C112.484 92.8647 111.559 94.9129 110.637 97.0201H162.778Z" fill="#FEBAC7"/>
<path d="M150.698 84.3562C145.76 83.9166 140.005 83.8582 140.005 83.8582C140.005 83.8582 129.07 83.2887 123.277 84.2921C125.05 85.9596 130.694 90.5315 138.882 90.0637C144.935 89.7178 148.683 86.6901 150.698 84.3562Z" fill="#FE9F73"/>
<path d="M140.366 83.9407L133.709 83.8259L134.066 78.3906H139.686L140.366 83.9407Z" fill="#FE9F73"/>
<path d="M133.92 80.6424C134.561 81.1799 135.438 81.6093 136.264 81.7167C136.4 81.7195 136.542 81.7208 136.686 81.7212V81.7218C136.696 81.7218 136.705 81.7216 136.715 81.7216C136.725 81.7216 136.735 81.7218 136.745 81.7218V81.7212C136.889 81.7209 137.03 81.7195 137.167 81.7167C138.136 81.5907 139.211 81.0387 139.927 80.3441L139.688 78.3906H134.068L133.92 80.6424Z" fill="#F07162"/>
<path d="M141.121 68.9875C140.849 68.443 140.494 68.0799 140.147 67.8375C139.442 67.5128 138.288 67.0912 136.817 66.9277H136.746H136.704H136.634C135.163 67.0913 134.009 67.5128 133.303 67.8375C132.956 68.0799 132.602 68.443 132.33 68.9875C132.201 69.9914 132.042 71.8435 132.013 73.6937C131.986 75.3571 132.433 77.0008 133.35 78.3465C134.041 79.3605 135.034 80.2692 136.408 80.4031C136.504 80.4045 136.603 80.4052 136.704 80.4054V80.4057C136.712 80.4057 136.718 80.4056 136.725 80.4056C136.732 80.4056 136.739 80.4057 136.746 80.4057V80.4054C136.847 80.4052 136.947 80.4045 137.043 80.4031C138.417 80.2692 139.41 79.3606 140.101 78.3465C141.017 77.0009 141.464 75.3571 141.438 73.6937C141.408 71.8435 141.25 69.9914 141.121 68.9875Z" fill="#FE9F73"/>
<path d="M140.291 74.7729C140.291 75.6269 140.983 76.3193 141.837 76.3193C142.691 76.3193 143.384 75.6269 143.384 74.7729C143.384 73.919 142.691 73.2266 141.837 73.2266C140.983 73.2266 140.291 73.919 140.291 74.7729Z" fill="#FE9F73"/>
<path d="M141.954 75.7269C142.278 75.7269 142.495 75.4831 142.567 75.2394C142.651 74.9511 142.554 74.671 142.32 74.5255C141.986 74.3184 141.683 74.4395 141.518 74.5431C141.584 74.3785 141.686 74.2582 141.82 74.1842C142.123 74.0181 142.497 74.1395 142.501 74.1407C142.527 74.1493 142.555 74.1352 142.564 74.1093C142.572 74.0834 142.558 74.0554 142.532 74.0467C142.515 74.041 142.113 73.9104 141.773 74.0974C141.576 74.2054 141.442 74.3963 141.375 74.6649L141.332 74.8371L141.458 74.7119C141.473 74.6967 141.838 74.3426 142.268 74.6095C142.505 74.7569 142.526 75.0259 142.472 75.2115C142.415 75.4061 142.243 75.6311 141.946 75.6276C141.92 75.6269 141.896 75.6491 141.896 75.6764C141.896 75.7038 141.918 75.7263 141.945 75.7266C141.948 75.7268 141.951 75.7269 141.954 75.7269Z" fill="#F07162"/>
<path d="M133.557 74.7729C133.557 75.6269 132.865 76.3193 132.011 76.3193C131.157 76.3193 130.465 75.6269 130.465 74.7729C130.465 73.919 131.157 73.2266 132.011 73.2266C132.865 73.2266 133.557 73.919 133.557 74.7729Z" fill="#FE9F73"/>
<path d="M131.899 75.7269C131.574 75.7269 131.357 75.4831 131.286 75.2394C131.202 74.9511 131.298 74.671 131.533 74.5255C131.866 74.3184 132.17 74.4395 132.335 74.5431C132.268 74.3785 132.167 74.2582 132.032 74.1842C131.729 74.0181 131.355 74.1395 131.352 74.1407C131.326 74.1493 131.298 74.1352 131.289 74.1093C131.28 74.0834 131.294 74.0554 131.32 74.0467C131.337 74.041 131.739 73.9104 132.08 74.0974C132.277 74.2054 132.41 74.3963 132.478 74.6649L132.521 74.8371L132.395 74.7119C132.379 74.6967 132.015 74.3426 131.585 74.6095C131.347 74.7569 131.327 75.0259 131.381 75.2115C131.438 75.4061 131.609 75.6311 131.906 75.6276C131.933 75.6269 131.956 75.6491 131.957 75.6764C131.957 75.7038 131.935 75.7263 131.908 75.7266C131.905 75.7268 131.902 75.7269 131.899 75.7269Z" fill="#F07162"/>
<path d="M136.528 76.2737C136.554 76.2737 136.577 76.2555 136.583 76.2289C136.59 76.1983 136.57 76.1682 136.54 76.1615C136.175 76.0834 135.945 75.6341 135.878 75.4873C136.397 75.2106 136.713 74.8507 136.818 74.417C136.991 73.7102 136.543 73.071 136.523 73.0442C136.505 73.0188 136.47 73.0129 136.444 73.031C136.419 73.0491 136.413 73.0845 136.431 73.11C136.435 73.1163 136.868 73.7352 136.708 74.3911C136.607 74.804 136.295 75.1471 135.78 75.411L135.734 75.4343L135.753 75.482C135.763 75.5098 136.021 76.1667 136.516 76.2727C136.52 76.2733 136.524 76.2737 136.528 76.2737Z" fill="#F07162"/>
<path d="M135.294 73.7884C135.294 73.9628 135.152 74.1041 134.978 74.1041C134.804 74.1041 134.662 73.9628 134.662 73.7884C134.662 73.6141 134.804 73.4727 134.978 73.4727C135.152 73.4727 135.294 73.6141 135.294 73.7884Z" fill="black"/>
<path d="M138.555 73.8498C138.555 74.0242 138.696 74.1656 138.87 74.1656C139.045 74.1656 139.186 74.0243 139.186 73.8498C139.186 73.6755 139.045 73.5342 138.87 73.5342C138.696 73.5342 138.555 73.6755 138.555 73.8498Z" fill="black"/>
<path d="M131.34 73.2805C131.34 73.2805 137.049 70.5235 137.519 67.0117L138.685 65.3234L138.169 67.2716C138.169 67.2716 139.743 72.9792 142.191 73.2584C142.191 73.2584 144.329 65.5066 138.192 63.9665C132.055 62.4264 130.85 68.4994 131.34 73.2805Z" fill="#FEC786"/>
<path d="M121.036 90.7733L119.607 96.9736L119.983 97.0602L121.412 90.8599L121.036 90.7733Z" fill="#21111D"/>
<path d="M151.999 90.7748L151.623 90.8613L153.051 97.0617L153.427 96.9752L151.999 90.7748Z" fill="#21111D"/>
<path d="M138.616 95.7971L138.541 95.5512C142.958 94.2086 147.623 88.1198 147.67 88.0586L147.875 88.2139C147.828 88.2761 143.113 94.4301 138.616 95.7971Z" fill="#21111D"/>
<path d="M124.823 88.3285L124.682 88.543L127.194 90.1985L127.336 89.9841L124.823 88.3285Z" fill="#21111D"/>
<path d="M125.524 90.2618L125.357 90.458L127.185 92.0044L127.351 91.8082L125.524 90.2618Z" fill="#21111D"/>
<path d="M135.771 76.9024C135.801 76.8967 137.684 76.8555 137.684 76.8555C137.684 76.8555 137.447 77.6339 136.747 77.651C136.047 77.6683 135.771 76.9024 135.771 76.9024Z" fill="#FBFDFC"/>
<path d="M140.173 73.1744C140.144 73.1744 140.115 73.1645 140.09 73.144C139.294 72.4683 138.157 72.8405 138.146 72.8444C138.079 72.8673 138.006 72.831 137.983 72.7639C137.961 72.6967 137.996 72.6238 138.064 72.601C138.116 72.5835 139.348 72.1773 140.257 72.9481C140.311 72.994 140.317 73.075 140.272 73.1291C140.246 73.159 140.21 73.1744 140.173 73.1744Z" fill="#FEC786"/>
<path d="M133.734 73.149C133.697 73.149 133.659 73.1326 133.634 73.1011C133.589 73.0458 133.598 72.9651 133.653 72.9204C134.58 72.1718 135.803 72.6078 135.854 72.6267C135.921 72.6511 135.955 72.7249 135.931 72.7913C135.906 72.858 135.832 72.892 135.766 72.868C135.755 72.8639 134.627 72.4642 133.815 73.1203C133.791 73.1397 133.763 73.149 133.734 73.149Z" fill="#FEC786"/>
<path d="M132.369 76.2773C132.369 76.2773 132.938 80.4617 136.409 80.403L132.369 76.2773Z" fill="#FE9F73"/>
<path d="M141.161 76.1608C141.161 76.1608 140.592 80.4614 137.121 80.4028L139.668 74.5068L141.161 76.1608Z" fill="#FE9F73"/>
<path d="M140.732 64.5561C140.719 64.5561 140.706 64.554 140.693 64.5499C138.041 63.6986 136.344 63.735 135.57 63.8324C135.543 63.8357 135.525 63.8379 135.515 63.8385C135.442 63.8412 135.384 63.7897 135.379 63.7191C135.374 63.6485 135.428 63.5872 135.499 63.5821C135.506 63.5816 135.519 63.5798 135.537 63.5775C136.334 63.4773 138.072 63.4389 140.771 64.3052C140.839 64.3269 140.876 64.3993 140.854 64.4668C140.837 64.5213 140.786 64.5561 140.732 64.5561Z" fill="black"/>
<path d="M130.925 72.3899C130.871 72.3899 130.82 72.355 130.803 72.3004C130.781 72.2328 130.819 72.1605 130.886 72.1389C135.004 70.8281 136.681 66.918 136.697 66.8787C136.725 66.8132 136.8 66.7825 136.865 66.8097C136.931 66.8371 136.962 66.9123 136.934 66.9777C136.918 67.0183 135.198 71.0361 130.965 72.3839C130.951 72.388 130.938 72.3899 130.925 72.3899Z" fill="black"/>
<path d="M162.132 143.391C159.254 136.678 156.25 130.235 154.949 129.282C152.106 127.197 133.341 127.007 133.341 127.007C133.341 127.007 119.694 126.296 112.491 127.552C112.491 127.552 104.53 127.86 100.549 136.105C99.5292 138.219 98.3781 140.768 97.2305 143.391H162.132Z" fill="#F75553"/>
<path d="M110.248 135.629L108.469 143.346L108.844 143.432L110.623 135.715L110.248 135.629Z" fill="#21111D"/>
<path d="M148.716 135.622L148.34 135.709L150.117 143.427L150.493 143.34L148.716 135.622Z" fill="#21111D"/>
<path d="M129.906 133.973C127.691 133.988 125.918 131.51 126.018 128.54L126.278 120.812H133.273L133.747 128.337C133.937 131.36 132.166 133.958 129.906 133.973Z" fill="#FE9F73"/>
<path d="M126.18 123.761C127.417 126.806 132.878 126.556 133.447 123.56L133.274 120.811H126.279L126.18 123.761Z" fill="#F07162"/>
<path d="M135.059 109.107C134.721 108.429 134.279 107.977 133.847 107.675C132.97 107.271 131.533 106.747 129.702 106.543H129.614H129.562H129.474C127.643 106.747 126.206 107.271 125.329 107.675C124.897 107.977 124.455 108.429 124.117 109.107C123.956 110.356 123.759 112.662 123.722 114.965C123.689 117.035 124.245 119.081 125.386 120.756C126.246 122.019 127.482 123.15 129.193 123.316C129.312 123.318 129.436 123.319 129.562 123.319V123.319C129.571 123.319 129.579 123.319 129.588 123.319C129.597 123.319 129.605 123.319 129.614 123.319V123.319C129.74 123.319 129.864 123.318 129.983 123.316C131.693 123.149 132.929 122.019 133.789 120.756C134.931 119.081 135.487 117.035 135.454 114.965C135.417 112.662 135.22 110.356 135.059 109.107Z" fill="#FE9F73"/>
<path d="M134.025 116.308C134.025 117.371 134.887 118.232 135.95 118.232C137.013 118.232 137.875 117.371 137.875 116.308C137.875 115.245 137.013 114.383 135.95 114.383C134.887 114.383 134.025 115.245 134.025 116.308Z" fill="#FE9F73"/>
<path d="M136.093 117.496C136.497 117.496 136.766 117.193 136.855 116.889C136.96 116.53 136.84 116.182 136.548 116.001C136.133 115.743 135.755 115.894 135.55 116.023C135.633 115.818 135.759 115.668 135.926 115.576C136.303 115.369 136.769 115.52 136.773 115.522C136.806 115.532 136.841 115.515 136.851 115.483C136.862 115.45 136.845 115.415 136.812 115.405C136.791 115.397 136.291 115.235 135.867 115.468C135.622 115.602 135.455 115.84 135.372 116.174L135.318 116.389L135.475 116.233C135.494 116.214 135.948 115.773 136.483 116.105C136.779 116.289 136.805 116.624 136.737 116.855C136.666 117.097 136.453 117.377 136.083 117.373C136.049 117.372 136.021 117.399 136.02 117.434C136.02 117.467 136.047 117.495 136.081 117.496C136.085 117.496 136.089 117.496 136.093 117.496Z" fill="#F07162"/>
<path d="M124.978 116.308C124.978 117.371 124.117 118.232 123.054 118.232C121.991 118.232 121.129 117.371 121.129 116.308C121.129 115.245 121.991 114.383 123.054 114.383C124.117 114.383 124.978 115.245 124.978 116.308Z" fill="#FE9F73"/>
<path d="M122.909 117.496C122.505 117.496 122.236 117.193 122.147 116.889C122.042 116.53 122.162 116.182 122.454 116.001C122.869 115.743 123.247 115.894 123.452 116.023C123.369 115.818 123.243 115.668 123.076 115.576C122.699 115.369 122.233 115.52 122.229 115.522C122.196 115.532 122.161 115.515 122.151 115.483C122.14 115.45 122.157 115.415 122.19 115.405C122.211 115.397 122.711 115.235 123.135 115.468C123.38 115.602 123.546 115.84 123.63 116.174L123.684 116.389L123.527 116.233C123.508 116.214 123.054 115.773 122.519 116.105C122.223 116.289 122.197 116.624 122.265 116.855C122.336 117.097 122.549 117.377 122.919 117.373C122.953 117.372 122.981 117.399 122.982 117.434C122.982 117.467 122.955 117.495 122.921 117.496C122.917 117.496 122.913 117.496 122.909 117.496Z" fill="#F07162"/>
<path d="M127.809 115.084C127.809 115.301 127.633 115.476 127.416 115.476C127.199 115.476 127.023 115.301 127.023 115.084C127.023 114.866 127.199 114.69 127.416 114.69C127.633 114.69 127.809 114.866 127.809 115.084Z" fill="black"/>
<path d="M131.863 115.16C131.863 115.377 132.039 115.553 132.256 115.553C132.473 115.553 132.649 115.377 132.649 115.16C132.649 114.943 132.473 114.767 132.256 114.767C132.039 114.767 131.863 114.943 131.863 115.16Z" fill="black"/>
<path d="M133.877 114.478C133.804 114.478 133.73 114.453 133.67 114.402C132.75 113.622 131.417 114.055 131.404 114.059C131.237 114.115 131.056 114.025 130.999 113.858C130.943 113.691 131.032 113.51 131.199 113.453C131.267 113.43 132.885 112.897 134.084 113.914C134.219 114.029 134.235 114.231 134.121 114.365C134.058 114.44 133.968 114.478 133.877 114.478Z" fill="black"/>
<path d="M125.869 114.448C125.776 114.448 125.683 114.407 125.62 114.329C125.509 114.191 125.53 113.99 125.668 113.879C126.892 112.891 128.495 113.463 128.563 113.488C128.729 113.549 128.814 113.732 128.753 113.898C128.692 114.064 128.508 114.149 128.343 114.089C128.33 114.084 127.008 113.619 126.07 114.377C126.01 114.425 125.939 114.448 125.869 114.448Z" fill="black"/>
<path d="M124.162 118.181C124.162 118.181 124.87 123.389 129.19 123.316L124.162 118.181Z" fill="#FE9F73"/>
<path d="M135.103 118.036C135.103 118.036 134.395 123.389 130.074 123.316L133.245 115.978L135.103 118.036Z" fill="#FE9F73"/>
<path d="M134.615 106.323L129.587 105.823V105.802L129.483 105.812L129.379 105.802V105.823L124.351 106.323C124.351 106.323 123.003 106.323 123.05 108.598C123.083 110.166 123.388 115.675 123.575 118.946C123.666 120.539 124.404 122.023 125.619 123.057C125.647 123.08 125.674 123.104 125.701 123.127C127.881 124.981 131.085 124.981 133.265 123.127C133.292 123.104 133.32 123.08 133.347 123.057C134.562 122.023 135.3 120.539 135.391 118.946C135.578 115.675 135.884 110.166 135.916 108.598C135.964 106.323 134.615 106.323 134.615 106.323ZM133.093 117.648L129.98 117.847L125.809 117.648C125.004 117.648 124.351 116.995 124.351 116.19V110.635C124.351 110.635 128.37 111.554 130.584 109.403L131.627 107.887L131.302 109.64C131.302 109.64 131.106 111.867 134.707 112.388L134.551 116.249C134.519 117.031 133.876 117.648 133.093 117.648Z" fill="black"/>
<path d="M130.28 117.943C130.277 117.943 130.274 117.943 130.271 117.943L128.791 117.806L129.12 114.247C129.125 114.194 129.172 114.156 129.225 114.159C129.278 114.164 129.317 114.211 129.312 114.264L129 117.631L130.289 117.751C130.342 117.755 130.381 117.802 130.376 117.855C130.371 117.906 130.329 117.943 130.28 117.943Z" fill="#F07162"/>
<path d="M132.257 106.088C131.392 105.873 125.919 103.432 123.218 104.19C120.517 104.949 122.412 112.721 123.266 113.314C124.12 113.906 123.925 108.076 124 108.029C124.075 107.981 129.193 108.36 129.193 108.36L132.257 106.088Z" fill="black"/>
<path d="M131.301 106.252C131.46 106.228 133.725 105.802 135.192 106.277C136.803 106.798 136.838 110.469 136.388 111.346C135.938 112.223 135.642 114.408 135.642 114.408C135.642 114.408 134.383 110.777 134.118 109.924C133.853 109.071 131.301 106.252 131.301 106.252Z" fill="black"/>
<path d="M128.34 118.891C128.377 118.884 130.721 118.833 130.721 118.833C130.721 118.833 130.425 119.802 129.554 119.823C128.683 119.845 128.34 118.891 128.34 118.891Z" fill="#FBFDFC"/>
<path d="M129.478 135.291C124.767 135.157 124.494 128.76 124.492 128.696L124.877 128.683C124.88 128.743 125.14 134.782 129.489 134.906L129.478 135.291Z" fill="#21111D"/>
<path d="M95.2699 54.2207H93.7852V148.896H95.2699V54.2207Z" fill="#21111D"/>
<path d="M171.506 149.425H172.99V53.9058H171.506V149.425Z" fill="#21111D"/>
<path d="M229.307 116.095C229.307 116.095 229.56 120.146 231.564 121.935C233.567 123.724 238.508 125.727 238.47 130.52C238.432 135.314 228.978 137.174 226.765 137.103C224.552 137.031 221.175 144.093 220.484 135.661C219.794 127.229 215.957 128.243 219.185 124.947C222.412 121.651 223.411 121.957 225.09 119.477C226.77 116.998 229.307 116.095 229.307 116.095Z" fill="#49263E"/>
<path d="M208.327 116.433L208.318 128.776L211.021 135.457C211.021 135.457 218.59 133.633 218.529 133.007C218.469 132.381 219.738 123.509 219.461 123.151C219.184 122.793 215.896 115.21 214.639 115.066C213.381 114.923 208.327 116.433 208.327 116.433Z" fill="#49263E"/>
<path d="M226.23 124.262C230.328 120.164 230.328 113.52 226.23 109.422C222.132 105.324 215.488 105.324 211.391 109.422C207.293 113.52 207.293 120.164 211.391 124.262C215.488 128.359 222.132 128.359 226.23 124.262Z" fill="#49263E"/>
<path d="M188.23 143.811C190.935 137.503 193.758 131.448 194.98 130.552C197.652 128.593 215.285 128.415 215.285 128.415C215.285 128.415 228.109 127.747 234.877 128.927C234.877 128.927 242.358 129.216 246.098 136.964C247.057 138.95 248.139 141.346 249.217 143.811H188.23Z" fill="#3F9896"/>
<path d="M236.989 136.508L236.613 136.595L238.283 143.847L238.659 143.76L236.989 136.508Z" fill="#21111D"/>
<path d="M200.822 136.524L199.15 143.775L199.526 143.862L201.198 136.61L200.822 136.524Z" fill="#21111D"/>
<path d="M218.514 134.96C220.596 134.974 222.262 132.646 222.168 129.855L221.923 122.593H215.35L214.906 129.665C214.727 132.505 216.391 134.946 218.514 134.96Z" fill="#FE9F73"/>
<path d="M222.013 125.365C220.85 128.226 215.718 127.992 215.184 125.176L215.346 122.593H221.919L222.013 125.365Z" fill="#F07162"/>
<path d="M213.671 111.596C213.989 110.959 214.404 110.534 214.809 110.251C215.634 109.871 216.984 109.378 218.705 109.187H218.787H218.836H218.919C220.64 109.378 221.989 109.871 222.814 110.251C223.22 110.534 223.635 110.959 223.953 111.596C224.104 112.77 224.289 114.936 224.324 117.1C224.355 119.046 223.832 120.968 222.76 122.542C221.952 123.728 220.79 124.791 219.183 124.948C219.071 124.949 218.955 124.95 218.836 124.95V124.951C218.828 124.951 218.82 124.95 218.812 124.95C218.804 124.95 218.796 124.951 218.788 124.951V124.95C218.669 124.95 218.553 124.949 218.441 124.948C216.834 124.791 215.672 123.728 214.864 122.542C213.792 120.968 213.269 119.046 213.3 117.1C213.334 114.936 213.52 112.77 213.671 111.596Z" fill="#FE9F73"/>
<path d="M212.83 120.171C213.829 120.171 214.639 119.361 214.639 118.362C214.639 117.363 213.829 116.554 212.83 116.554C211.831 116.554 211.021 117.363 211.021 118.362C211.021 119.361 211.831 120.171 212.83 120.171Z" fill="#FE9F73"/>
<path d="M212.697 119.477C212.318 119.477 212.064 119.192 211.981 118.907C211.882 118.57 211.995 118.242 212.269 118.072C212.659 117.83 213.014 117.972 213.207 118.093C213.129 117.9 213.011 117.759 212.853 117.673C212.499 117.479 212.062 117.621 212.058 117.622C212.027 117.632 211.994 117.616 211.984 117.585C211.974 117.555 211.991 117.522 212.021 117.512C212.041 117.506 212.511 117.353 212.909 117.571C213.139 117.698 213.296 117.921 213.374 118.235L213.425 118.437L213.277 118.29C213.259 118.273 212.833 117.858 212.33 118.171C212.053 118.343 212.028 118.658 212.092 118.875C212.158 119.102 212.359 119.366 212.706 119.362C212.738 119.361 212.765 119.387 212.765 119.419C212.766 119.451 212.74 119.477 212.708 119.477C212.704 119.477 212.701 119.477 212.697 119.477Z" fill="#F07162"/>
<path d="M224.959 120.17C225.958 120.17 226.768 119.36 226.768 118.361C226.768 117.363 225.958 116.553 224.959 116.553C223.96 116.553 223.15 117.363 223.15 118.361C223.15 119.36 223.96 120.17 224.959 120.17Z" fill="#FE9F73"/>
<path d="M225.089 119.477C225.468 119.477 225.722 119.192 225.806 118.907C225.904 118.57 225.791 118.242 225.517 118.072C225.127 117.83 224.772 117.972 224.579 118.093C224.657 117.9 224.775 117.759 224.933 117.673C225.287 117.479 225.724 117.621 225.729 117.622C225.759 117.632 225.792 117.616 225.802 117.585C225.812 117.555 225.795 117.522 225.765 117.512C225.745 117.506 225.275 117.353 224.877 117.571C224.647 117.698 224.49 117.921 224.412 118.235L224.361 118.437L224.509 118.29C224.527 118.273 224.953 117.858 225.456 118.171C225.733 118.343 225.758 118.658 225.694 118.875C225.628 119.102 225.427 119.366 225.08 119.362C225.048 119.361 225.021 119.387 225.021 119.419C225.021 119.451 225.046 119.477 225.078 119.477C225.082 119.477 225.085 119.477 225.089 119.477Z" fill="#F07162"/>
<path d="M220.482 117.21C220.482 117.414 220.648 117.579 220.852 117.579C221.056 117.579 221.221 117.414 221.221 117.21C221.221 117.006 221.056 116.841 220.852 116.841C220.648 116.841 220.482 117.006 220.482 117.21Z" fill="black"/>
<path d="M216.674 117.282C216.674 117.486 216.509 117.652 216.305 117.652C216.101 117.652 215.936 117.486 215.936 117.282C215.936 117.078 216.101 116.913 216.305 116.913C216.509 116.913 216.674 117.078 216.674 117.282Z" fill="black"/>
<path d="M223.911 120.121C223.911 120.121 223.245 125.015 219.186 124.947L223.911 120.121Z" fill="#FE9F73"/>
<path d="M213.627 119.985C213.627 119.985 214.292 125.015 218.352 124.947L215.373 118.051L213.627 119.985Z" fill="#FE9F73"/>
<path d="M215.791 116.216C215.818 116.216 215.846 116.206 215.869 116.187C216.617 115.552 217.685 115.902 217.696 115.905C217.759 115.927 217.828 115.893 217.849 115.83C217.87 115.767 217.836 115.698 217.774 115.677C217.725 115.66 216.566 115.278 215.713 116.003C215.662 116.046 215.655 116.122 215.699 116.173C215.722 116.201 215.756 116.216 215.791 116.216Z" fill="#49263E"/>
<path d="M221.839 116.193C221.874 116.193 221.909 116.177 221.933 116.148C221.975 116.096 221.967 116.02 221.915 115.978C221.044 115.275 219.895 115.684 219.847 115.702C219.784 115.725 219.752 115.794 219.775 115.857C219.798 115.919 219.867 115.951 219.93 115.929C219.94 115.925 221 115.549 221.763 116.166C221.785 116.184 221.812 116.193 221.839 116.193Z" fill="#49263E"/>
<path d="M215.936 109.803C215.936 109.803 216.272 112.595 220.223 113.225C224.174 113.854 223.91 120.122 223.91 120.122C223.91 120.122 228.326 126.21 228.487 124.493C228.648 122.776 229.184 118.312 228.487 116.841C227.789 115.371 227.221 111.669 225.842 110.756C224.462 109.844 225.917 110.246 223.419 109.186C220.921 108.127 221.741 107.698 219.185 107.805C216.628 107.912 217.071 107.698 215.991 108.073C214.911 108.449 215.936 109.803 215.936 109.803Z" fill="#49263E"/>
<path d="M215.652 108.282C215.652 108.282 216.606 111.633 216.303 112.491C216 113.35 213.31 116.618 213.31 116.618C213.31 116.618 212.172 114.53 212.53 113.6C212.888 112.67 210.992 112.91 211.421 112.45C211.85 111.99 215.494 108.127 215.494 108.127L215.652 108.282Z" fill="#49263E"/>
<path d="M212.831 109.755C214.432 109.755 215.729 108.457 215.729 106.857C215.729 105.256 214.432 103.959 212.831 103.959C211.231 103.959 209.934 105.256 209.934 106.857C209.934 108.457 211.231 109.755 212.831 109.755Z" fill="#49263E"/>
<path d="M221.221 106.857C221.221 108.457 222.518 109.755 224.119 109.755C225.719 109.755 227.017 108.457 227.017 106.857C227.017 105.256 225.719 103.959 224.119 103.959C222.518 103.959 221.221 105.256 221.221 106.857Z" fill="#49263E"/>
<path d="M225.989 109.488C226.07 109.488 226.15 109.456 226.209 109.393C226.322 109.273 226.317 109.085 226.2 108.97L226.185 108.955C225.725 108.471 224.01 106.852 221.279 106.33C221.115 106.298 220.957 106.406 220.925 106.569C220.894 106.733 221.001 106.891 221.165 106.923C223.721 107.411 225.319 108.92 225.748 109.371C225.766 109.39 225.778 109.402 225.783 109.407C225.841 109.461 225.915 109.488 225.989 109.488Z" fill="#F75553"/>
<path d="M211.214 109.691C211.291 109.691 211.367 109.661 211.425 109.603C211.43 109.598 211.442 109.585 211.459 109.566C211.872 109.1 213.417 107.537 215.954 106.96C216.116 106.923 216.218 106.761 216.181 106.598C216.144 106.436 215.982 106.333 215.82 106.371C213.107 106.988 211.451 108.666 211.008 109.165L210.993 109.182C210.881 109.303 210.886 109.493 211.004 109.606C211.063 109.662 211.139 109.691 211.214 109.691Z" fill="#F75553"/>
<path d="M221.368 112.501C221.367 112.501 221.365 112.501 221.364 112.501C218.694 112.417 216.749 110.341 216.667 110.253C216.619 110.201 216.622 110.119 216.674 110.071C216.726 110.023 216.807 110.026 216.855 110.078C216.875 110.099 218.811 112.164 221.372 112.244C221.443 112.246 221.498 112.305 221.496 112.376C221.494 112.446 221.437 112.501 221.368 112.501Z" fill="#21111D"/>
<path d="M236.106 128.355C236.054 128.355 236.005 128.323 235.985 128.271C235.464 126.87 234.22 125.947 232.78 124.879C232.069 124.352 231.334 123.807 230.583 123.14C227.285 120.212 227.337 116.586 227.338 116.549C227.34 116.479 227.396 116.418 227.47 116.424C227.541 116.426 227.597 116.485 227.595 116.556C227.594 116.591 227.549 120.102 230.754 122.948C231.497 123.608 232.227 124.149 232.933 124.673C234.406 125.765 235.678 126.709 236.226 128.181C236.251 128.248 236.217 128.322 236.151 128.347C236.136 128.352 236.121 128.355 236.106 128.355Z" fill="#21111D"/>
<path d="M218.745 119.58C218.77 119.58 218.792 119.563 218.797 119.537C218.804 119.509 218.785 119.48 218.756 119.474C218.414 119.401 218.197 118.978 218.135 118.841C218.622 118.581 218.919 118.242 219.019 117.835C219.18 117.171 218.759 116.57 218.741 116.545C218.724 116.521 218.691 116.515 218.667 116.532C218.643 116.549 218.638 116.583 218.655 116.607C218.659 116.612 219.065 117.194 218.915 117.81C218.82 118.198 218.527 118.521 218.043 118.769L218 118.791L218.017 118.835C218.027 118.862 218.27 119.479 218.734 119.579C218.738 119.579 218.742 119.58 218.745 119.58Z" fill="#F07162"/>
<path d="M219.615 120.733C219.785 120.733 219.945 120.694 220.092 120.618C220.605 120.352 220.789 119.724 220.797 119.697C220.806 119.665 220.788 119.632 220.755 119.623C220.723 119.613 220.69 119.632 220.681 119.664C220.679 119.67 220.502 120.269 220.036 120.511C219.794 120.636 219.513 120.645 219.201 120.536C219.17 120.525 219.135 120.542 219.125 120.573C219.113 120.604 219.13 120.639 219.162 120.65C219.32 120.705 219.471 120.733 219.615 120.733Z" fill="#F07162"/>
<path d="M207.195 131.504L206.865 131.703L208.162 133.85L208.492 133.65L207.195 131.504Z" fill="#21111D"/>
<path d="M206.685 132.582L206.346 132.765L208.143 136.116L208.483 135.934L206.685 132.582Z" fill="#21111D"/>
<path d="M219.887 118.088C219.809 118.088 219.809 117.967 219.887 117.967C219.965 117.967 219.965 118.088 219.887 118.088Z" fill="#F07162"/>
<path d="M220.383 118.503C220.305 118.503 220.305 118.382 220.383 118.382C220.461 118.382 220.461 118.503 220.383 118.503Z" fill="#F07162"/>
<path d="M219.621 118.799C219.543 118.799 219.543 118.678 219.621 118.678C219.699 118.678 219.699 118.799 219.621 118.799Z" fill="#F07162"/>
<path d="M221.119 118.182C221.041 118.182 221.041 118.061 221.119 118.061C221.197 118.061 221.197 118.182 221.119 118.182Z" fill="#F07162"/>
<path d="M221.926 118.825C221.848 118.825 221.848 118.704 221.926 118.704C222.004 118.704 222.004 118.825 221.926 118.825Z" fill="#F07162"/>
<path d="M222.232 117.901C222.154 117.901 222.154 117.779 222.232 117.779C222.31 117.779 222.31 117.901 222.232 117.901Z" fill="#F07162"/>
<path d="M217.605 117.993C217.527 117.993 217.527 117.872 217.605 117.872C217.684 117.872 217.684 117.993 217.605 117.993Z" fill="#F07162"/>
<path d="M216.947 118.773C216.869 118.773 216.869 118.651 216.947 118.651C217.025 118.651 217.026 118.773 216.947 118.773Z" fill="#F07162"/>
<path d="M216.52 118.302C216.441 118.302 216.441 118.181 216.52 118.181C216.598 118.181 216.598 118.302 216.52 118.302Z" fill="#F07162"/>
<path d="M216.147 118.611C216.068 118.611 216.068 118.489 216.147 118.489C216.225 118.489 216.225 118.611 216.147 118.611Z" fill="#F07162"/>
<path d="M215.34 117.901C215.262 117.901 215.262 117.779 215.34 117.779C215.418 117.779 215.418 117.901 215.34 117.901Z" fill="#F07162"/>
<path d="M214.883 118.719C214.878 118.719 214.874 118.719 214.869 118.719C214.861 118.719 214.853 118.717 214.846 118.714C214.838 118.711 214.832 118.707 214.826 118.701C214.821 118.696 214.816 118.689 214.814 118.682C214.81 118.674 214.808 118.667 214.809 118.658C214.809 118.653 214.81 118.648 214.811 118.642C214.814 118.632 214.819 118.623 214.827 118.615C214.831 118.612 214.835 118.609 214.839 118.606C214.848 118.6 214.858 118.598 214.869 118.598C214.874 118.598 214.878 118.598 214.883 118.598C214.891 118.597 214.899 118.599 214.906 118.603C214.914 118.605 214.92 118.61 214.926 118.615C214.932 118.621 214.936 118.628 214.938 118.635C214.942 118.642 214.944 118.65 214.944 118.658C214.943 118.664 214.942 118.669 214.941 118.675C214.938 118.685 214.933 118.694 214.926 118.701C214.922 118.704 214.917 118.708 214.913 118.711C214.904 118.716 214.894 118.719 214.883 118.719Z" fill="#F07162"/>
<path d="M214.588 117.963C214.583 117.958 214.579 117.954 214.574 117.949C214.568 117.944 214.564 117.937 214.562 117.93C214.558 117.922 214.556 117.915 214.557 117.906C214.556 117.898 214.558 117.89 214.562 117.883C214.564 117.876 214.569 117.869 214.574 117.863C214.578 117.86 214.583 117.857 214.587 117.854C214.596 117.848 214.606 117.846 214.617 117.846C214.623 117.847 214.628 117.847 214.633 117.848C214.644 117.851 214.653 117.856 214.66 117.864C214.665 117.868 214.669 117.873 214.674 117.877C214.68 117.883 214.684 117.889 214.686 117.897C214.69 117.904 214.692 117.912 214.691 117.92C214.692 117.928 214.69 117.936 214.686 117.943C214.684 117.951 214.68 117.957 214.674 117.963C214.67 117.966 214.666 117.969 214.661 117.972C214.652 117.978 214.642 117.981 214.631 117.981C214.625 117.98 214.62 117.979 214.615 117.978C214.604 117.976 214.595 117.97 214.588 117.963Z" fill="#F07162"/>
<path d="M250.636 143.39H95.2715V148.896H250.636V143.39Z" fill="#21111D"/>
<path d="M233.906 97.4627C231.299 91.3819 228.577 85.5451 227.399 84.6814C224.823 82.7927 207.825 82.621 207.825 82.621C207.825 82.621 195.462 81.9771 188.937 83.1146C188.937 83.1146 181.726 83.3936 178.12 90.8627C177.196 92.7772 176.153 95.0867 175.113 97.4627H233.906Z" fill="#61A3C5"/>
<path d="M186.904 90.4276L185.293 97.4189L185.669 97.5055L187.279 90.5142L186.904 90.4276Z" fill="#21111D"/>
<path d="M221.766 90.4184L221.391 90.5049L223.001 97.4961L223.376 97.4096L221.766 90.4184Z" fill="#21111D"/>
<path d="M204.712 88.9314C202.705 88.9446 201.099 86.7001 201.189 84.0094L201.425 77.0088H207.762L208.19 83.8264C208.363 86.5644 206.759 88.9178 204.712 88.9314Z" fill="#FE9F73"/>
<path d="M201.336 79.6806C202.457 82.4385 207.404 82.2128 207.919 79.4981L207.763 77.0078H201.426L201.336 79.6806Z" fill="#F07162"/>
<path d="M209.378 66.4066C209.072 65.7925 208.672 65.3831 208.281 65.1098C207.486 64.7437 206.184 64.2684 204.526 64.084H204.446H204.399H204.319C202.66 64.2684 201.359 64.7437 200.564 65.1098C200.173 65.3831 199.773 65.7925 199.466 66.4066C199.32 67.5384 199.142 69.6268 199.109 71.713C199.079 73.5886 199.583 75.4419 200.616 76.9593C201.395 78.1026 202.515 79.1273 204.064 79.2781C204.172 79.2797 204.285 79.2805 204.399 79.2807V79.2811C204.407 79.2811 204.414 79.2809 204.422 79.2809C204.43 79.2809 204.438 79.2811 204.446 79.2811V79.2807C204.56 79.2805 204.672 79.2797 204.78 79.2781C206.329 79.1271 207.449 78.1026 208.228 76.9593C209.262 75.4421 209.766 73.5886 209.736 71.713C209.703 69.6268 209.524 67.5384 209.378 66.4066Z" fill="#FE9F73"/>
<path d="M208.441 72.9302C208.441 73.8931 209.222 74.6737 210.185 74.6737C211.148 74.6737 211.929 73.8931 211.929 72.9302C211.929 71.9672 211.148 71.1865 210.185 71.1865C209.222 71.1866 208.441 71.9672 208.441 72.9302Z" fill="#FE9F73"/>
<path d="M210.317 74.0052C210.683 74.0052 210.927 73.7302 211.008 73.4555C211.103 73.1304 210.994 72.8144 210.729 72.6505C210.353 72.4171 210.011 72.5536 209.825 72.6704C209.9 72.4848 210.014 72.349 210.166 72.2657C210.508 72.0782 210.929 72.2151 210.933 72.2167C210.963 72.2264 210.994 72.2104 211.004 72.1813C211.014 72.1521 210.998 72.1204 210.969 72.1107C210.949 72.1042 210.496 71.957 210.112 72.1678C209.89 72.2897 209.739 72.5049 209.664 72.8078L209.615 73.002L209.757 72.8609C209.775 72.8437 210.186 72.4445 210.67 72.7455C210.938 72.9116 210.962 73.215 210.9 73.4242C210.836 73.6436 210.643 73.8974 210.308 73.8934C210.278 73.8926 210.252 73.9175 210.251 73.9485C210.251 73.9793 210.276 74.0046 210.306 74.0051C210.31 74.0051 210.313 74.0052 210.317 74.0052Z" fill="#F07162"/>
<path d="M200.245 72.9292C200.245 73.8922 199.464 74.6728 198.501 74.6728C197.538 74.6728 196.758 73.8922 196.758 72.9292C196.758 71.9663 197.538 71.1855 198.501 71.1855C199.464 71.1857 200.245 71.9663 200.245 72.9292Z" fill="#FE9F73"/>
<path d="M198.371 74.0042C198.005 74.0042 197.761 73.7292 197.68 73.4545C197.585 73.1295 197.694 72.8135 197.959 72.6496C198.335 72.4161 198.677 72.5527 198.863 72.6694C198.788 72.4838 198.674 72.3481 198.522 72.2647C198.18 72.0773 197.759 72.2142 197.755 72.2157C197.725 72.2254 197.694 72.2094 197.684 72.1803C197.674 72.1511 197.69 72.1195 197.719 72.1097C197.739 72.1032 198.192 71.956 198.576 72.1669C198.798 72.2887 198.949 72.504 199.024 72.8069L199.073 73.001L198.931 72.86C198.913 72.8427 198.502 72.4436 198.018 72.7445C197.75 72.9106 197.726 73.214 197.788 73.4232C197.852 73.6426 198.045 73.8964 198.38 73.8925C198.41 73.8916 198.436 73.9166 198.437 73.9475C198.437 73.9784 198.413 74.0036 198.382 74.0041C198.378 74.0041 198.375 74.0042 198.371 74.0042Z" fill="#F07162"/>
<path d="M202.813 71.8189C202.813 72.0155 202.654 72.1748 202.457 72.1748C202.261 72.1748 202.102 72.0155 202.102 71.8189C202.102 71.6223 202.261 71.4629 202.457 71.4629C202.654 71.4629 202.813 71.6223 202.813 71.8189Z" fill="black"/>
<path d="M206.484 71.8892C206.484 72.0858 206.644 72.2452 206.84 72.2452C207.037 72.2452 207.196 72.0858 207.196 71.8892C207.196 71.6926 207.037 71.5332 206.84 71.5332C206.644 71.5332 206.484 71.6926 206.484 71.8892Z" fill="black"/>
<path d="M208.309 71.272C208.243 71.272 208.177 71.2494 208.122 71.2032C207.289 70.4962 206.081 70.8883 206.069 70.8924C205.918 70.9429 205.754 70.8616 205.703 70.7102C205.652 70.5588 205.732 70.3949 205.884 70.3434C205.946 70.3222 207.411 69.8393 208.497 70.7612C208.619 70.8647 208.634 71.0475 208.531 71.1696C208.474 71.2371 208.392 71.272 208.309 71.272Z" fill="black"/>
<path d="M201.054 71.2432C200.969 71.2432 200.885 71.2064 200.828 71.1355C200.727 71.011 200.747 70.8285 200.871 70.728C201.98 69.8329 203.433 70.3512 203.494 70.3734C203.644 70.4286 203.721 70.5952 203.666 70.7453C203.611 70.8953 203.444 70.9724 203.295 70.9177C203.283 70.9132 202.085 70.4922 201.235 71.1787C201.182 71.2221 201.118 71.2432 201.054 71.2432Z" fill="black"/>
<path d="M199.51 74.626C199.51 74.626 200.151 79.3442 204.065 79.278L199.51 74.626Z" fill="#FE9F73"/>
<path d="M209.422 74.4949C209.422 74.4949 208.781 79.3441 204.867 79.2779L207.739 72.6299L209.422 74.4949Z" fill="#FE9F73"/>
<path d="M205.05 74.4191C205.047 74.4191 205.044 74.419 205.041 74.4188L203.691 74.294L203.99 71.0609C203.995 71.0078 204.042 70.9704 204.095 70.9739C204.148 70.9787 204.187 71.0257 204.182 71.0788L203.901 74.1199L205.059 74.2268C205.112 74.2317 205.151 74.2786 205.146 74.3317C205.141 74.3816 205.099 74.4191 205.05 74.4191Z" fill="#F07162"/>
<path d="M206.841 63.671C203.683 61.5694 200.14 61.4395 198.501 63.1086C196.721 64.922 197.923 69.6799 198.696 70.2164C199.47 70.7528 199.293 65.472 199.361 65.4291C199.429 65.3861 204.065 65.7296 204.065 65.7296L206.841 63.671Z" fill="black"/>
<path d="M206.484 63.7108C206.628 63.6894 208.68 63.3036 210.009 63.7335C211.469 64.2057 211.282 67.4531 211.093 68.3253C210.696 70.1461 210.426 71.1859 210.426 71.1859C210.426 71.1859 209.276 67.8102 209.036 67.0375C208.796 66.2649 206.484 63.7108 206.484 63.7108Z" fill="black"/>
<path d="M203.295 75.2697C203.328 75.2632 205.452 75.2168 205.452 75.2168C205.452 75.2168 205.184 76.0945 204.395 76.1139C203.605 76.1333 203.295 75.2697 203.295 75.2697Z" fill="#FBFDFC"/>
<path d="M204.325 90.1436C200.04 90.0218 199.793 84.2105 199.791 84.1518L200.176 84.1387C200.178 84.1937 200.413 89.6468 204.336 89.7584L204.325 90.1436Z" fill="#21111D"/>
<path d="M197.756 67.8152L198.222 71.2084C198.222 71.2084 198.843 71.1662 199.117 71.2986C199.117 71.2986 199.097 66.5359 200.244 66.329C201.391 66.1221 203.178 67.1912 204.371 66.5703C205.564 65.9496 206.156 64.3742 206.156 64.3742C206.156 64.3742 206.102 66.2599 207.143 66.8808C208.185 67.5014 209.245 71.4637 209.245 71.4637C209.245 71.4637 209.631 71.2308 209.91 71.2083C209.91 71.2083 209.254 66.4669 209.116 66.191C208.978 65.9152 206.113 63.7974 206.113 63.7974C206.113 63.7974 204.664 63.7105 203.683 63.6403C202.701 63.5701 200.753 63.4347 200.244 63.6403C199.736 63.846 198.667 63.777 198.667 64.4323C198.667 65.0876 198.197 64.9497 198.501 65.7084C198.804 66.467 197.756 67.8152 197.756 67.8152Z" fill="black"/>
<path d="M205.732 63.5306L205.936 63.1084C205.936 63.1084 206.688 63.6129 208.445 63.5308C210.202 63.4487 210.227 68.8974 210.189 69.001C210.15 69.1045 210.426 71.1852 210.426 71.1852C210.426 71.1852 209.908 71.0627 209.244 71.4631C209.244 71.4631 208.426 66.5181 208.323 66.1214C208.219 65.7247 205.732 63.5306 205.732 63.5306Z" fill="black"/>
<path d="M250.311 98.5053V97.0205L94.1891 97.0205V98.5053L250.311 98.5053Z" fill="#21111D"/>
<path d="M201.029 122.622H179.492C178.276 122.622 177.291 121.637 177.291 120.421V109.692C177.291 108.477 178.276 107.491 179.492 107.491H201.029C202.244 107.491 203.229 108.477 203.229 109.692V120.421C203.229 121.637 202.244 122.622 201.029 122.622Z" fill="#F3FFFE"/>
<path d="M202.712 116.279L205.989 120.325L201.262 118.618L202.712 116.279Z" fill="#F3FFFE"/>
<path d="M218.683 76.3625H244.678C245.894 76.3625 246.879 75.3772 246.879 74.1618V60.8316C246.879 59.6162 245.894 58.6309 244.678 58.6309H218.683C217.468 58.6309 216.482 59.6162 216.482 60.8316V74.1617C216.482 75.3772 217.468 76.3625 218.683 76.3625Z" fill="#F3FFFE"/>
<g opacity="0.5">
<path d="M70.5976 74.8661C74.1387 74.1767 76.4504 70.7473 75.761 67.2062C75.0717 63.6651 71.6422 61.3534 68.1011 62.0428C64.5601 62.7322 62.2483 66.1616 62.9377 69.7027C63.6271 73.2438 67.0565 75.5555 70.5976 74.8661Z" fill="#F3FFFE"/>
</g>
<g opacity="0.5">
<path d="M70.5996 94.5478C74.1406 93.8584 76.4524 90.4289 75.763 86.8879C75.0736 83.3468 71.6442 81.035 68.1031 81.7244C64.562 82.4138 62.2503 85.8433 62.9396 89.3843C63.629 92.9254 67.0585 95.2371 70.5996 94.5478Z" fill="#F3FFFE"/>
</g>
<g opacity="0.5">
<path d="M75.8432 108.534C76.2392 104.948 73.6535 101.72 70.0677 101.324C66.4819 100.928 63.2539 103.513 62.8578 107.099C62.4617 110.685 65.0475 113.913 68.6333 114.309C72.2191 114.705 75.4471 112.119 75.8432 108.534Z" fill="#F3FFFE"/>
</g>
<g opacity="0.5">
<path d="M75.8432 128.215C76.2392 124.629 73.6535 121.401 70.0677 121.005C66.4819 120.609 63.2539 123.195 62.8578 126.781C62.4617 130.367 65.0475 133.595 68.6333 133.991C72.2191 134.387 75.4471 131.801 75.8432 128.215Z" fill="#F3FFFE"/>
</g>
<g opacity="0.5">
<path d="M90.3577 71.3143H77.395C77.1466 71.3143 76.9453 71.113 76.9453 70.8647C76.9453 70.6164 77.1466 70.415 77.395 70.415H90.3577C90.6061 70.415 90.8074 70.6164 90.8074 70.8647C90.8074 71.113 90.606 71.3143 90.3577 71.3143Z" fill="#F3FFFE"/>
</g>
<g opacity="0.5">
<path d="M86.4746 68.2948H77.395C77.1466 68.2948 76.9453 68.0935 76.9453 67.8452C76.9453 67.5967 77.1466 67.3955 77.395 67.3955H86.4746C86.723 67.3955 86.9243 67.5969 86.9243 67.8452C86.9243 68.0935 86.7229 68.2948 86.4746 68.2948Z" fill="#F3FFFE"/>
</g>
<g opacity="0.5">
<path d="M90.3577 90.4003H77.395C77.1466 90.4003 76.9453 90.1989 76.9453 89.9506C76.9453 89.7022 77.1466 89.501 77.395 89.501H90.3577C90.6061 89.501 90.8074 89.7023 90.8074 89.9506C90.8074 90.1989 90.606 90.4003 90.3577 90.4003Z" fill="#F3FFFE"/>
</g>
<g opacity="0.5">
<path d="M86.4746 87.3808H77.395C77.1466 87.3808 76.9453 87.1794 76.9453 86.9311C76.9453 86.6827 77.1466 86.4814 77.395 86.4814H86.4746C86.723 86.4814 86.9243 86.6828 86.9243 86.9311C86.9243 87.1795 86.7229 87.3808 86.4746 87.3808Z" fill="#F3FFFE"/>
</g>
<g opacity="0.5">
<path d="M90.3577 109.487H77.395C77.1466 109.487 76.9453 109.286 76.9453 109.038C76.9453 108.789 77.1466 108.588 77.395 108.588H90.3577C90.6061 108.588 90.8074 108.789 90.8074 109.038C90.8074 109.286 90.606 109.487 90.3577 109.487Z" fill="#F3FFFE"/>
</g>
<g opacity="0.5">
<path d="M86.4746 106.469H77.395C77.1466 106.469 76.9453 106.268 76.9453 106.019C76.9453 105.771 77.1466 105.569 77.395 105.569H86.4746C86.723 105.569 86.9243 105.771 86.9243 106.019C86.9243 106.268 86.7229 106.469 86.4746 106.469Z" fill="#F3FFFE"/>
</g>
<g opacity="0.5">
<path d="M90.3577 128.573H77.395C77.1466 128.573 76.9453 128.372 76.9453 128.124C76.9453 127.875 77.1466 127.674 77.395 127.674H90.3577C90.6061 127.674 90.8074 127.875 90.8074 128.124C90.8074 128.372 90.606 128.573 90.3577 128.573Z" fill="#F3FFFE"/>
</g>
<g opacity="0.5">
<path d="M86.4746 125.555H77.395C77.1466 125.555 76.9453 125.353 76.9453 125.105C76.9453 124.857 77.1466 124.655 77.395 124.655H86.4746C86.723 124.655 86.9243 124.857 86.9243 125.105C86.9243 125.353 86.7229 125.555 86.4746 125.555Z" fill="#F3FFFE"/>
</g>
<path d="M143.12 111.296L139.926 113.851L143.841 113.334L143.12 111.296Z" fill="#F3FFFE"/>
<path d="M167.118 118.07H144.638C143.423 118.07 142.438 117.085 142.438 115.869V104.589C142.438 103.374 143.423 102.389 144.638 102.389H167.118C168.334 102.389 169.319 103.374 169.319 104.589V115.869C169.319 117.085 168.334 118.07 167.118 118.07Z" fill="#F3FFFE"/>
<path d="M124.32 67.5117L127.515 70.0669L123.6 69.5498L124.32 67.5117Z" fill="#F3FFFE"/>
<path d="M100.322 74.2858H122.802C124.017 74.2858 125.003 73.3005 125.003 72.0849V60.8052C125.003 59.5898 124.018 58.6045 122.802 58.6045H100.322C99.1065 58.6045 98.1211 59.5898 98.1211 60.8052V72.0849C98.1211 73.3004 99.1064 74.2858 100.322 74.2858Z" fill="#F3FFFE"/>
<path d="M217.568 66.4932L213.766 69.3009L218.309 68.8784L217.568 66.4932Z" fill="#F3FFFE"/>
<path d="M79.4159 128.195C79.4159 128.195 78.0139 108.649 70.4264 112.443C62.839 116.236 56.6536 141.143 55.8289 141.885C55.0042 142.627 55.2516 165.39 55.2516 165.39L64.0761 160.937C64.0761 160.937 66.4239 106.53 79.4159 128.195Z" fill="#258D8C"/>
<path d="M70.913 87.7256C70.913 87.7256 53.9116 102.937 49.2726 129.019C44.6335 155.101 59.2929 162.777 59.2929 162.777C59.2929 162.777 61.3789 107.936 70.913 87.7256Z" fill="#7FC6A6"/>
<path d="M39.3693 166.297C39.3693 166.297 36.524 110.775 22.1738 86.7021C22.1738 86.7021 47.3671 101.732 55.7205 141.183C56.1908 143.404 56.4698 145.873 56.8259 148.25C57.1963 150.724 57.4173 152.914 57.3608 155.101C57.2608 158.964 56.725 162.283 56.5675 164.723C55.207 185.803 39.3693 166.297 39.3693 166.297Z" fill="#258D8C"/>
<path d="M39.8555 142.719C38.8791 134.803 35.8735 127.258 31.0431 120.911C27.5537 116.326 23.514 112.842 20.3595 115.328C13.3493 120.854 11.9473 155.162 11.9473 155.162C11.9473 155.162 19.8646 131.41 23.3284 132.977C26.7922 134.544 30.0086 166.791 30.0086 166.791L42.9568 167.863L39.8555 142.719Z" fill="#7FC6A6"/>
<path d="M57.52 164.358C58.0515 152.236 56.5313 140.602 53.0014 129.778C50.1773 121.118 46.0678 112.956 40.7871 105.517C31.7942 92.8482 22.3866 86.588 22.2926 86.5264L22.0625 86.8767C22.1559 86.9381 31.5087 93.1644 40.4561 105.774C48.711 117.408 58.2997 137.013 57.1013 164.34L57.52 164.358Z" fill="#21111D"/>
<path d="M59.4988 162.785C59.5039 162.648 60.0397 148.894 61.7328 132.85C63.2942 118.053 66.1867 98.2284 71.099 87.8155L70.72 87.6367C65.7825 98.1031 62.8807 117.978 61.3158 132.808C59.6214 148.866 59.0853 162.632 59.0801 162.769L59.4988 162.785Z" fill="#21111D"/>
<path d="M64.2839 160.945C64.2878 160.856 64.6862 151.914 66.0002 142.853C67.7279 130.938 70.2249 124.235 73.2215 123.466C74.9908 123.013 77.0137 124.64 79.2353 128.303L79.5936 128.085C77.265 124.247 75.0863 122.556 73.1174 123.061C69.8984 123.886 67.3642 130.526 65.585 142.795C64.2683 151.877 63.8691 160.838 63.8652 160.927L64.2839 160.945Z" fill="#21111D"/>
<path d="M42.7531 167.889L43.169 167.838L40.0677 142.694C39.0781 134.671 36.0166 127.095 31.2141 120.785C28.1734 116.789 25.4724 114.616 23.1865 114.326C22.1069 114.188 21.1139 114.471 20.234 115.164C17.2825 117.491 14.9566 124.935 13.3211 137.29C12.1071 146.461 11.7457 155.068 11.7422 155.154L12.1609 155.171C12.1749 154.829 13.6386 120.896 20.4933 115.493C21.2817 114.872 22.17 114.619 23.1335 114.741C25.3039 115.017 27.9104 117.136 30.8806 121.038C35.6382 127.289 38.6712 134.795 39.6517 142.745L42.7531 167.889Z" fill="#21111D"/>
<path d="M29.3 136.878L28.9277 137.07L31.6484 142.344L32.0207 142.152L29.3 136.878Z" fill="#21111D"/>
<path d="M29.2948 140.432L28.9277 140.634L31.6483 145.573L32.0154 145.37L29.2948 140.432Z" fill="#21111D"/>
<path d="M59.4544 105.433L57.1289 110.539L57.5103 110.713L59.8358 105.607L59.4544 105.433Z" fill="#21111D"/>
<path d="M59.1103 109.429L57.1309 113.001L57.4974 113.204L59.4769 109.632L59.1103 109.429Z" fill="#21111D"/>
<path d="M72.4355 114.319L68.4766 116.337L68.6669 116.71L72.6258 114.693L72.4355 114.319Z" fill="#21111D"/>
<path d="M70.7989 116.629L68.457 118.054L68.6747 118.412L71.0166 116.987L70.7989 116.629Z" fill="#21111D"/>
<path d="M68.5704 159.525C68.5704 159.525 67.8315 200.115 56.9593 199.163H48.4099H47.0372H38.4878C27.6158 200.115 26.877 159.525 26.877 159.525C37.1653 157.97 58.2821 157.97 68.5704 159.525Z" fill="#F75553"/>
<path d="M31.2359 164.722L30.9316 165.01L42.8117 177.555L43.1159 177.267L31.2359 164.722Z" fill="#21111D"/>
<path d="M34.7225 172.81L34.4062 173.085L40.9466 180.606L41.2628 180.331L34.7225 172.81Z" fill="#21111D"/>
<path d="M91.6241 166.11H91.5148H80.25L83.0984 199.652H91.5148H91.6241H100.344L102.889 166.11H91.6241Z" fill="#61A3C5"/>
<path d="M99.8821 160.227H91.6239H91.5145H83.2564C82.2896 160.227 81.5059 161.017 81.5059 161.992H91.5145H91.6239H101.633C101.633 161.017 100.849 160.227 99.8821 160.227Z" fill="#21111D"/>
<path d="M102.638 162.898C102.528 162.37 102.066 161.992 101.531 161.992H91.6246H91.5152H81.6084C81.0736 161.992 80.6119 162.37 80.5013 162.898L79.562 167.382C79.4134 168.092 79.9501 168.759 80.6691 168.759H91.5152H91.6246H102.471C103.19 168.759 103.727 168.092 103.578 167.382L102.638 162.898Z" fill="#44243D"/>
<path d="M80.8047 176.409L81.5422 190.044H91.4974H91.6368H101.592L102.33 176.409H91.6368H91.4974H80.8047Z" fill="#FEC786"/>
<path d="M97.4149 183.226C97.4149 186.175 95.0441 188.566 92.1196 188.566C89.195 188.566 86.8242 186.175 86.8242 183.226C86.8242 180.277 89.195 177.886 92.1196 177.886C95.0441 177.886 97.4149 180.277 97.4149 183.226Z" fill="#F3FFFE"/>
<path d="M101.593 190.236H81.3608L80.6133 176.419L80.9984 176.398L81.726 189.851H101.593V190.236Z" fill="#21111D"/>
<path d="M98.6789 169.354L96.7441 172.77L97.0795 172.96L99.0142 169.544L98.6789 169.354Z" fill="#21111D"/>
<path d="M98.8067 171.722L97.0566 174.729L97.39 174.923L99.14 171.916L98.8067 171.722Z" fill="#21111D"/>
<path d="M270.163 178.812H213.629V189.561H270.163V178.812Z" fill="#F75553"/>
<path d="M223.879 178.812H220.018V189.561H223.879V178.812Z" fill="#E24444"/>
<path d="M264.08 178.812H260.219V189.561H264.08V178.812Z" fill="#E24444"/>
<path d="M253.966 181.227L249.59 183.503L249.922 184.142L254.299 181.866L253.966 181.227Z" fill="#21111D"/>
<path d="M257.025 181.847L252.4 184.444L252.753 185.072L257.378 182.475L257.025 181.847Z" fill="#21111D"/>
<path d="M264.513 189.562H190.41V199.128H264.513V189.562Z" fill="#61A3C5"/>
<path d="M203.85 189.562H198.789V199.128H203.85V189.562Z" fill="#61A3C5"/>
<path d="M257.702 189.562H252.641V199.127H257.702V189.562Z" fill="#61A3C5"/>
<path d="M206.178 195.706L205.846 194.821L210.221 191.665L210.554 192.551L206.178 195.706Z" fill="#21111D"/>
<path d="M209.007 197.014L208.654 196.144L213.279 192.545L213.632 193.415L209.007 197.014Z" fill="#21111D"/>
<path d="M274.009 199.182H14.2539V200H274.009V199.182Z" fill="#21111D"/>
</svg>
