<svg width="20" height="20" viewBox="0 0 20 20" fill="none" xmlns="http://www.w3.org/2000/svg">
<g clip-path="url(#clip0_900_479)">
<path d="M5.07799 9.35766C5.02619 9.02385 4.99932 8.68187 4.99932 8.33366C4.99932 4.65176 8.00372 1.66699 11.7098 1.66699C15.416 1.66699 18.4204 4.65176 18.4204 8.33366C18.4204 9.16539 18.2671 9.96154 17.987 10.6957C17.9288 10.8482 17.8997 10.9245 17.8865 10.984C17.8734 11.043 17.8684 11.0845 17.867 11.1449C17.8655 11.2058 17.8738 11.273 17.8903 11.4073L18.2258 14.1324C18.2621 14.4274 18.2803 14.5749 18.2312 14.6822C18.1882 14.7761 18.1118 14.8508 18.0169 14.8916C17.9086 14.9382 17.7615 14.9166 17.4674 14.8735L14.8131 14.4844C14.6745 14.4641 14.6052 14.4539 14.5421 14.4543C14.4796 14.4547 14.4364 14.4593 14.3753 14.4721C14.3135 14.4851 14.2346 14.5147 14.0768 14.5738C13.3407 14.8495 12.543 15.0003 11.7098 15.0003C11.3614 15.0003 11.0191 14.9739 10.6849 14.9231M6.359 18.3337C8.82975 18.3337 10.8327 16.2816 10.8327 13.7503C10.8327 11.219 8.82975 9.16699 6.359 9.16699C3.88825 9.16699 1.88531 11.219 1.88531 13.7503C1.88531 14.2592 1.96625 14.7486 2.11564 15.2059C2.17879 15.3992 2.21037 15.4959 2.22073 15.5619C2.23155 15.6309 2.23344 15.6696 2.22942 15.7393C2.22556 15.806 2.20886 15.8814 2.17547 16.0323L1.66602 18.3337L4.16168 17.9928C4.2979 17.9742 4.36601 17.9649 4.42549 17.9653C4.48812 17.9657 4.52135 17.9691 4.58277 17.9814C4.6411 17.993 4.72782 18.0236 4.90124 18.0848C5.35818 18.2461 5.84861 18.3337 6.359 18.3337Z" stroke="#717680" stroke-width="1.67" stroke-linecap="round" stroke-linejoin="round"/>
</g>
<defs>
<clipPath id="clip0_900_479">
<rect width="20" height="20" fill="white"/>
</clipPath>
</defs>
</svg>
