<svg width="25" height="24" viewBox="0 0 25 24" fill="none" xmlns="http://www.w3.org/2000/svg">
<path d="M2.66797 8C2.66797 9.34178 10.7741 13 12.668 13C14.5618 13 22.668 9.34178 22.668 8C22.668 6.65822 14.5618 3 12.668 3C10.7741 3 2.66797 6.65822 2.66797 8Z" stroke="#535862" stroke-width="1.25" stroke-linecap="round" stroke-linejoin="round"/>
<path d="M6.66797 11L6.91465 16.6581C6.91875 16.7521 6.92923 16.846 6.95524 16.9364C7.05437 17.2809 7.24304 17.5951 7.53503 17.8044C9.75959 19.3985 15.5763 19.3985 17.8009 17.8044C18.0929 17.5951 18.2816 17.2809 18.3807 16.9364C18.4067 16.846 18.4172 16.7521 18.4213 16.6581L18.668 11" stroke="#535862" stroke-width="1.25" stroke-linecap="round" stroke-linejoin="round"/>
<path d="M21.793 9.5C21.793 9.15482 21.5131 8.875 21.168 8.875C20.8228 8.875 20.543 9.15482 20.543 9.5H21.793ZM19.7394 19.7634L20.3475 19.9079L19.7394 19.7634ZM22.5965 19.7634L23.2046 19.619L22.5965 19.7634ZM21.168 9.5H20.543V16.5072H21.168H21.793V9.5H21.168ZM19.7394 19.7634L20.3475 19.9079C20.4957 19.2838 20.7501 18.7163 21.0185 18.191C21.2684 17.702 21.5808 17.1633 21.7493 16.7368L21.168 16.5072L20.5867 16.2776C20.4469 16.6315 20.2102 17.0257 19.9054 17.6222C19.6192 18.1822 19.3134 18.8526 19.1313 19.619L19.7394 19.7634ZM22.5965 19.7634L23.2046 19.619C23.0226 18.8526 22.7167 18.1822 22.4305 17.6222C22.1257 17.0257 21.8891 16.6315 21.7493 16.2776L21.168 16.5072L20.5867 16.7368C20.7551 17.1633 21.0676 17.702 21.3174 18.191C21.5859 18.7163 21.8402 19.2838 21.9885 19.9079L22.5965 19.7634ZM21.4834 21V20.375H20.8525V21V21.625H21.4834V21ZM19.7394 19.7634L19.1313 19.619C19.0087 20.1353 18.9518 20.7593 19.39 21.1988C19.5962 21.4056 19.8533 21.5056 20.0889 21.5579C20.3239 21.61 20.5855 21.625 20.8525 21.625V21V20.375C20.6207 20.375 20.464 20.3607 20.3596 20.3375C20.2557 20.3145 20.2523 20.2933 20.2752 20.3162C20.308 20.3491 20.2998 20.3735 20.2949 20.3211C20.2887 20.2549 20.2953 20.1277 20.3475 19.9079L19.7394 19.7634ZM22.5965 19.7634L21.9885 19.9079C22.0407 20.1277 22.0473 20.2549 22.0411 20.3211C22.0362 20.3735 22.028 20.3491 22.0608 20.3162C22.0836 20.2933 22.0802 20.3145 21.9764 20.3375C21.8719 20.3607 21.7152 20.375 21.4834 20.375V21V21.625C21.7504 21.625 22.0121 21.61 22.247 21.5579C22.4826 21.5056 22.7398 21.4056 22.946 21.1988C23.3842 20.7593 23.3273 20.1353 23.2046 19.619L22.5965 19.7634Z" fill="#535862"/>
</svg>
