<svg width="24" height="25" viewBox="0 0 24 25" fill="none" xmlns="http://www.w3.org/2000/svg">
<path d="M8.38028 9.51937C9.07627 10.969 10.0251 12.3276 11.2266 13.5292C12.4282 14.7308 13.7869 15.6796 15.2365 16.3756C15.3612 16.4354 15.4235 16.4654 15.5024 16.4884C15.7828 16.5701 16.127 16.5114 16.3644 16.3414C16.4313 16.2935 16.4884 16.2364 16.6027 16.1221C16.9523 15.7725 17.1271 15.5977 17.3029 15.4834C17.9658 15.0524 18.8204 15.0524 19.4833 15.4834C19.6591 15.5977 19.8339 15.7725 20.1835 16.1221L20.3783 16.3169C20.9098 16.8484 21.1755 17.1141 21.3198 17.3995C21.6069 17.967 21.6069 18.6373 21.3198 19.2049C21.1755 19.4903 20.9098 19.756 20.3783 20.2874L20.2207 20.4451C19.6911 20.9747 19.4263 21.2395 19.0662 21.4417C18.6667 21.6662 18.0462 21.8275 17.588 21.8262C17.1751 21.8249 16.8928 21.7448 16.3284 21.5846C13.295 20.7236 10.4326 19.0992 8.04466 16.7112C5.65668 14.3232 4.03221 11.4608 3.17124 8.42745C3.01103 7.863 2.93092 7.58078 2.9297 7.16783C2.92833 6.70961 3.08969 6.08912 3.31411 5.68962C3.51636 5.32958 3.78117 5.06477 4.3108 4.53515L4.46843 4.37751C4.99987 3.84607 5.2656 3.58035 5.55098 3.43601C6.11854 3.14894 6.7888 3.14894 7.35636 3.43601C7.64174 3.58035 7.90747 3.84607 8.43891 4.37751L8.63378 4.57238C8.98338 4.92199 9.15819 5.09679 9.27247 5.27257C9.70347 5.93546 9.70347 6.79004 9.27247 7.45293C9.15819 7.62871 8.98338 7.80351 8.63378 8.15312C8.51947 8.26743 8.46231 8.32459 8.41447 8.3914C8.24446 8.62883 8.18576 8.97309 8.26748 9.25344C8.29048 9.33233 8.32041 9.39468 8.38028 9.51937Z" stroke="#003B81" stroke-width="1.66667" stroke-linecap="round" stroke-linejoin="round"/>
</svg>
