<svg width="24" height="25" viewBox="0 0 24 25" fill="none" xmlns="http://www.w3.org/2000/svg">
<path d="M19 9.66602C19 13.532 15.866 16.666 12 16.666M19 9.66602C19 5.80002 15.866 2.66602 12 2.66602M19 9.66602H5M12 16.666C8.13401 16.666 5 13.532 5 9.66602M12 16.666C13.7509 14.7492 14.7468 12.2616 14.8009 9.66602C14.7468 7.07044 13.7509 4.58286 12 2.66602M12 16.666C10.2491 14.7492 9.25498 12.2616 9.20091 9.66602C9.25498 7.07044 10.2491 4.58286 12 2.66602M12 16.666V18.666M5 9.66602C5 5.80002 8.13401 2.66602 12 2.66602M14 20.666C14 21.7706 13.1046 22.666 12 22.666C10.8954 22.666 10 21.7706 10 20.666M14 20.666C14 19.5614 13.1046 18.666 12 18.666M14 20.666H21M10 20.666C10 19.5614 10.8954 18.666 12 18.666M10 20.666H3" stroke="#003B81" stroke-width="1.66667" stroke-linecap="round" stroke-linejoin="round"/>
</svg>
